<mxfile host="65bd71144e">
    <diagram id="0GzuQLf-Q5SENWgqs7eq" name="Page-1">
        <mxGraphModel dx="889" dy="579" grid="1" gridSize="10" guides="1" tooltips="1" connect="1" arrows="1" fold="1" page="1" pageScale="1" pageWidth="827" pageHeight="1169" math="0" shadow="0">
            <root>
                <mxCell id="0"/>
                <mxCell id="1" parent="0"/>
                <mxCell id="25" value="" style="rounded=0;whiteSpace=wrap;html=1;" vertex="1" parent="1">
                    <mxGeometry x="80" y="510" width="430" height="110" as="geometry"/>
                </mxCell>
                <mxCell id="3" value="Page Web Utilisateur" style="rounded=0;whiteSpace=wrap;html=1;" parent="1" vertex="1">
                    <mxGeometry x="230" y="150" width="120" height="60" as="geometry"/>
                </mxCell>
                <mxCell id="5" value="" style="endArrow=classic;html=1;exitX=0.5;exitY=1;exitDx=0;exitDy=0;startArrow=none;" parent="1" source="4" edge="1">
                    <mxGeometry width="50" height="50" relative="1" as="geometry">
                        <mxPoint x="530" y="440" as="sourcePoint"/>
                        <mxPoint x="420" y="290" as="targetPoint"/>
                    </mxGeometry>
                </mxCell>
                <mxCell id="6" value="" style="endArrow=classic;html=1;exitX=0.458;exitY=1.019;exitDx=0;exitDy=0;exitPerimeter=0;entryX=0.5;entryY=0;entryDx=0;entryDy=0;" parent="1" source="4" target="7" edge="1">
                    <mxGeometry width="50" height="50" relative="1" as="geometry">
                        <mxPoint x="530" y="440" as="sourcePoint"/>
                        <mxPoint x="420" y="420" as="targetPoint"/>
                    </mxGeometry>
                </mxCell>
                <mxCell id="7" value="Bdd Comité Régionale" style="rounded=0;whiteSpace=wrap;html=1;" parent="1" vertex="1">
                    <mxGeometry x="360" y="525" width="120" height="60" as="geometry"/>
                </mxCell>
                <mxCell id="8" value="API Site Historique" style="rounded=0;whiteSpace=wrap;html=1;" parent="1" vertex="1">
                    <mxGeometry x="540" y="420" width="120" height="60" as="geometry"/>
                </mxCell>
                <mxCell id="9" value="" style="endArrow=classic;html=1;exitX=0.75;exitY=1;exitDx=0;exitDy=0;entryX=0.5;entryY=0;entryDx=0;entryDy=0;" parent="1" source="4" target="8" edge="1">
                    <mxGeometry width="50" height="50" relative="1" as="geometry">
                        <mxPoint x="424.96000000000004" y="361.14" as="sourcePoint"/>
                        <mxPoint x="430" y="430" as="targetPoint"/>
                    </mxGeometry>
                </mxCell>
                <mxCell id="10" value="Page Web Administrateur" style="rounded=0;whiteSpace=wrap;html=1;" parent="1" vertex="1">
                    <mxGeometry x="520" y="150" width="120" height="60" as="geometry"/>
                </mxCell>
                <mxCell id="12" value="" style="endArrow=classic;html=1;exitX=0.5;exitY=1;exitDx=0;exitDy=0;endFill=1;" parent="1" source="3" target="4" edge="1">
                    <mxGeometry width="50" height="50" relative="1" as="geometry">
                        <mxPoint x="290" y="210" as="sourcePoint"/>
                        <mxPoint x="420" y="290" as="targetPoint"/>
                    </mxGeometry>
                </mxCell>
                <mxCell id="4" value="API / WebService" style="rounded=0;whiteSpace=wrap;html=1;" parent="1" vertex="1">
                    <mxGeometry x="360" y="290" width="120" height="60" as="geometry"/>
                </mxCell>
                <mxCell id="14" value="" style="endArrow=classic;html=1;exitX=0;exitY=1;exitDx=0;exitDy=0;entryX=0.5;entryY=0;entryDx=0;entryDy=0;" parent="1" source="4" target="13" edge="1">
                    <mxGeometry width="50" height="50" relative="1" as="geometry">
                        <mxPoint x="464.96000000000004" y="361.14" as="sourcePoint"/>
                        <mxPoint x="430" y="430" as="targetPoint"/>
                    </mxGeometry>
                </mxCell>
                <mxCell id="15" value="API WeMap" style="rounded=0;whiteSpace=wrap;html=1;" parent="1" vertex="1">
                    <mxGeometry x="120" y="525" width="120" height="60" as="geometry"/>
                </mxCell>
                <mxCell id="16" value="" style="endArrow=classic;html=1;exitX=0.25;exitY=1;exitDx=0;exitDy=0;endFill=1;entryX=0.5;entryY=0;entryDx=0;entryDy=0;" parent="1" source="3" target="15" edge="1">
                    <mxGeometry width="50" height="50" relative="1" as="geometry">
                        <mxPoint x="300" y="220" as="sourcePoint"/>
                        <mxPoint x="394.5454545454545" y="300" as="targetPoint"/>
                    </mxGeometry>
                </mxCell>
                <mxCell id="18" value="API Offre séjour" style="rounded=0;whiteSpace=wrap;html=1;" parent="1" vertex="1">
                    <mxGeometry x="40" y="290" width="120" height="60" as="geometry"/>
                </mxCell>
                <mxCell id="21" value="" style="endArrow=classic;html=1;exitX=0;exitY=1;exitDx=0;exitDy=0;endFill=1;entryX=0.5;entryY=0;entryDx=0;entryDy=0;" parent="1" source="3" target="18" edge="1">
                    <mxGeometry width="50" height="50" relative="1" as="geometry">
                        <mxPoint x="270" y="220" as="sourcePoint"/>
                        <mxPoint x="260" y="300" as="targetPoint"/>
                    </mxGeometry>
                </mxCell>
                <mxCell id="22" value="Bdd Touristique" style="rounded=0;whiteSpace=wrap;html=1;" parent="1" vertex="1">
                    <mxGeometry x="40" y="420" width="120" height="60" as="geometry"/>
                </mxCell>
                <mxCell id="23" value="" style="endArrow=classic;html=1;exitX=0.5;exitY=1;exitDx=0;exitDy=0;endFill=1;entryX=0.5;entryY=0;entryDx=0;entryDy=0;" parent="1" source="18" target="22" edge="1">
                    <mxGeometry width="50" height="50" relative="1" as="geometry">
                        <mxPoint x="240" y="220" as="sourcePoint"/>
                        <mxPoint x="110" y="300" as="targetPoint"/>
                    </mxGeometry>
                </mxCell>
                <mxCell id="13" value="Bdd Articles" style="rounded=0;whiteSpace=wrap;html=1;" parent="1" vertex="1">
                    <mxGeometry x="190" y="420" width="120" height="60" as="geometry"/>
                </mxCell>
                <mxCell id="26" value="Exterieure" style="text;html=1;strokeColor=none;fillColor=none;align=center;verticalAlign=middle;whiteSpace=wrap;rounded=0;" vertex="1" parent="1">
                    <mxGeometry x="80" y="590" width="60" height="30" as="geometry"/>
                </mxCell>
                <mxCell id="28" value="Authentification" style="rounded=0;whiteSpace=wrap;html=1;" vertex="1" parent="1">
                    <mxGeometry x="440" y="220" width="120" height="60" as="geometry"/>
                </mxCell>
                <mxCell id="29" value="" style="endArrow=classic;html=1;exitX=0.539;exitY=1.016;exitDx=0;exitDy=0;entryX=1;entryY=0.5;entryDx=0;entryDy=0;exitPerimeter=0;" edge="1" parent="1" source="10" target="28">
                    <mxGeometry width="50" height="50" relative="1" as="geometry">
                        <mxPoint x="460" y="360" as="sourcePoint"/>
                        <mxPoint x="610" y="430" as="targetPoint"/>
                    </mxGeometry>
                </mxCell>
                <mxCell id="30" value="" style="endArrow=classic;html=1;exitX=0;exitY=0.5;exitDx=0;exitDy=0;entryX=0.541;entryY=-0.003;entryDx=0;entryDy=0;entryPerimeter=0;" edge="1" parent="1" source="28" target="4">
                    <mxGeometry width="50" height="50" relative="1" as="geometry">
                        <mxPoint x="594.6800000000001" y="220.96000000000004" as="sourcePoint"/>
                        <mxPoint x="570" y="260" as="targetPoint"/>
                    </mxGeometry>
                </mxCell>
            </root>
        </mxGraphModel>
    </diagram>
</mxfile>